<?xml version="1.0" ?><svg id="Layer_1" style="enable-background:new 0 0 256 256;" version="1.1" viewBox="0 0 256 256" xml:space="preserve" xmlns="http://www.w3.org/2000/svg" xmlns:xlink="http://www.w3.org/1999/xlink"><style type="text/css">
	.st0{fill:#D5E2EB;}
	.st1{fill:#3E5063;}
	.st2{fill:#4B687F;}
	.st3{fill:#EA685E;}
	.st4{fill:#FFFFFF;}
</style><g id="Layer_2"><circle class="st0" cx="128" cy="128" r="120"/></g><g><path class="st1" d="M186.9,70.7h-23.8c-2.3,0-4.2,1.9-4.2,4.2v4.8c0,2.3,1.9,4.2,4.2,4.2h23.8c2.3,0,4.2-1.9,4.2-4.2v-4.8   C191.1,72.6,189.2,70.7,186.9,70.7z"/></g><g id="XMLID_2_"><path class="st2" d="M205.5,83.6v71.9h-30c2.3-5.8,3.5-12.1,3.5-18.7c0-28.1-22.9-51-51-51s-51,22.9-51,51c0,6.6,1.3,12.9,3.5,18.7   h-30V83.6c0-3.3,2.7-6,6-6h143C202.8,77.5,205.5,80.2,205.5,83.6z"/><path class="st1" d="M95.1,175.7H56.5c-3.3,0-6-2.7-6-6v-14.2h30C83.7,163.4,88.7,170.3,95.1,175.7z"/><path class="st1" d="M205.5,155.5v14.2c0,3.3-2.7,6-6,6h-38.6c6.4-5.4,11.4-12.3,14.6-20.2H205.5z"/></g><g><path class="st1" d="M81.9,77.6c0,0.2,0,0.3,0,0.5H68.2c0-0.2,0-0.3,0-0.5c0-3.8,3.1-6.9,6.9-6.9S81.9,73.8,81.9,77.6z"/></g><path class="st2" d="M128,90.8c-25.4,0-46,20.6-46,46c0,25.4,20.6,46,46,46s46-20.6,46-46C174,111.4,153.4,90.8,128,90.8z   M128,176.7c-22,0-39.9-17.8-39.9-39.9c0-22,17.8-39.9,39.9-39.9s39.9,17.9,39.9,39.9C167.9,158.8,150,176.7,128,176.7z"/><path class="st1" d="M128,96.9c-22,0-39.9,17.9-39.9,39.9c0,22,17.8,39.9,39.9,39.9s39.9-17.8,39.9-39.9  C167.9,114.8,150,96.9,128,96.9z M128,165.2c-15.7,0-28.4-12.7-28.4-28.4c0-15.7,12.7-28.4,28.4-28.4s28.4,12.7,28.4,28.4  C156.4,152.5,143.7,165.2,128,165.2z"/><g><path class="st0" d="M85.4,96H64.7c-1.5,0-2.8-1.2-2.8-2.8v-5.3c0-1.5,1.2-2.8,2.8-2.8h20.8c1.5,0,2.8,1.2,2.8,2.8v5.3   C88.2,94.8,87,96,85.4,96z"/></g><g><circle class="st3" cx="189.4" cy="92.7" r="6.1"/></g><g><circle class="st4" cx="136" cy="127.8" r="9"/></g></svg>